<?xml version="1.0" encoding="utf-8"?>
<!-- Generator: Adobe Illustrator 23.0.1, SVG Export Plug-In . SVG Version: 6.00 Build 0)  -->
<svg version="1.1" id="Layer_1" xmlns="http://www.w3.org/2000/svg" xmlns:xlink="http://www.w3.org/1999/xlink" x="0px" y="0px"
	 viewBox="0 0 316 44" style="enable-background:new 0 0 316 44;" xml:space="preserve">
<g>
	<path d="M1,10.1c0-0.5,0.1-1,0.4-1.4c0.3-0.4,0.6-0.6,1-0.6H9c0.9,0,1.8,0.2,2.5,0.7c0.8,0.5,1.4,1.1,1.9,1.9
		c0.5,0.8,1,1.7,1.3,2.6c0.3,1,0.4,2,0.4,2.9c0,1-0.1,2-0.4,3c-0.3,1-0.7,1.9-1.3,2.7c-0.5,0.8-1.2,1.4-1.9,1.9
		c-0.8,0.5-1.6,0.7-2.5,0.7H6.1v7c0,0.5-0.1,1-0.4,1.4s-0.6,0.6-1,0.6H2.5c-0.4,0-0.7-0.2-1-0.6C1.2,32.6,1,32.2,1,31.6V10.1z
		 M6.1,18.1h2.7c0.3,0,0.6-0.2,0.8-0.5c0.3-0.3,0.4-0.8,0.4-1.3c0-0.5-0.1-0.9-0.4-1.2c-0.2-0.3-0.5-0.5-0.8-0.5H6.1V18.1z"/>
	<path d="M29.6,8.1c0.4,0,0.7,0.2,1,0.6c0.3,0.4,0.4,0.9,0.4,1.4v2.6c0,0.5-0.1,1-0.4,1.4c-0.3,0.4-0.6,0.6-1,0.6h-7.2v2.6h6.7
		c0.4,0,0.7,0.2,1,0.6c0.3,0.4,0.4,0.8,0.4,1.4v2.6c0,0.5-0.1,1-0.4,1.4c-0.3,0.4-0.6,0.6-1,0.6h-6.7v3.3H30c0.4,0,0.7,0.2,1,0.6
		c0.3,0.4,0.4,0.8,0.4,1.4v2.6c0,0.5-0.1,1-0.4,1.4c-0.3,0.4-0.6,0.6-1,0.6H18.8c-0.4,0-0.7-0.2-1-0.6c-0.3-0.4-0.4-0.9-0.4-1.4
		V10.1c0-0.5,0.1-1,0.4-1.4c0.3-0.4,0.6-0.6,1-0.6H29.6z"/>
	<path d="M34.1,10.1c0-0.5,0.1-1,0.4-1.4c0.3-0.4,0.6-0.6,1-0.6h7.6c0.8,0,1.6,0.2,2.3,0.7c0.7,0.5,1.3,1.1,1.7,1.8
		c0.5,0.7,0.9,1.6,1.1,2.5c0.3,0.9,0.4,1.8,0.4,2.7c0,1-0.1,2-0.4,2.9c-0.2,0.9-0.6,1.7-1,2.4c0.4,0.6,0.6,1.3,0.8,2.1
		c0.1,0.8,0.2,1.6,0.2,2.4v3.2c0,0.4,0,0.7,0.1,0.9c0.1,0.2,0.2,0.4,0.3,0.5c0.2,0.3,0.4,0.7,0.4,1.1s0,0.8-0.1,1.1
		c-0.1,0.3-0.3,0.6-0.5,0.8c-0.2,0.2-0.5,0.3-0.9,0.3h-2.4c-0.1,0-0.3-0.1-0.5-0.2c-0.2-0.1-0.4-0.3-0.5-0.4
		c-0.2-0.3-0.3-0.6-0.5-0.9c-0.1-0.4-0.2-0.7-0.3-1.1c-0.1-0.4-0.1-0.7-0.1-1.1c0-0.4,0-0.7,0-0.9v-3.3c0-0.3-0.1-0.5-0.2-0.7
		c-0.1-0.2-0.4-0.4-0.7-0.4h-3.3v7.1c0,0.5-0.1,1-0.4,1.4s-0.6,0.6-1,0.6h-2.1c-0.4,0-0.7-0.2-1-0.6c-0.3-0.4-0.4-0.9-0.4-1.4V10.1z
		 M39.1,18h3.3c0.3,0,0.6-0.2,0.8-0.5c0.2-0.3,0.3-0.8,0.3-1.3c0-0.4-0.1-0.8-0.3-1.1c-0.2-0.3-0.5-0.4-0.8-0.4h-3.3V18z"/>
	<path d="M63.5,8.1c0.4,0,0.7,0.2,1,0.6c0.3,0.4,0.4,0.9,0.4,1.4v2.6c0,0.5-0.1,1-0.4,1.4s-0.6,0.6-1,0.6h-7v2.6h5.9
		c0.4,0,0.7,0.2,1,0.6s0.4,0.8,0.4,1.4v2.6c0,0.5-0.1,1-0.4,1.4c-0.3,0.4-0.6,0.6-1,0.6h-5.9v7.9c0,0.5-0.1,1-0.4,1.4
		s-0.6,0.6-1,0.6h-2.2c-0.4,0-0.7-0.2-1-0.6c-0.3-0.4-0.4-0.9-0.4-1.4V10.1c0-0.5,0.1-1,0.4-1.4c0.3-0.4,0.6-0.6,1-0.6H63.5z"/>
	<path d="M70.4,8.1c0.4,0,0.7,0.2,1,0.6c0.3,0.4,0.4,0.9,0.4,1.4v14.8c0,0.5,0.1,0.9,0.2,1.2c0.1,0.3,0.3,0.6,0.5,0.8
		c0.2,0.2,0.5,0.4,0.7,0.5c0.3,0.1,0.6,0.2,0.8,0.2c0.3,0,0.6-0.1,0.9-0.2c0.3-0.1,0.6-0.3,0.8-0.5c0.2-0.2,0.4-0.5,0.6-0.8
		c0.1-0.3,0.2-0.7,0.2-1.2V10.1c0-0.5,0.1-1,0.4-1.4c0.3-0.4,0.6-0.6,1-0.6h2.1c0.4,0,0.7,0.2,1,0.6c0.3,0.4,0.4,0.9,0.4,1.4v14.4
		c0,1.6-0.2,3-0.7,4.2c-0.5,1.2-1,2.2-1.8,3c-0.7,0.8-1.5,1.4-2.4,1.8c-0.9,0.4-1.8,0.6-2.7,0.6c-0.9,0-1.7-0.2-2.6-0.6
		c-0.9-0.4-1.7-1-2.4-1.8c-0.7-0.8-1.3-1.8-1.7-3c-0.4-1.2-0.7-2.6-0.7-4.2V10.1c0-0.5,0.1-1,0.4-1.4c0.3-0.4,0.6-0.6,1-0.6H70.4z"
		/>
	<path d="M89.9,8.1c0.3,0,0.6,0.1,0.8,0.4c0.3,0.3,0.4,0.6,0.5,1L94,21.8c0.5-2.1,1-4.1,1.4-6.1c0.5-2,1-4.1,1.4-6.1
		c0.1-0.4,0.3-0.7,0.5-1c0.3-0.3,0.6-0.4,0.8-0.4h3c0.4,0,0.7,0.2,1,0.6c0.3,0.4,0.4,0.9,0.4,1.4v21.6c0,0.5-0.1,1-0.4,1.4
		c-0.3,0.4-0.6,0.6-1,0.6h-2.1c-0.4,0-0.8-0.2-1-0.6s-0.4-0.9-0.4-1.4l0-5.4c-0.2,1-0.5,2-0.7,3c-0.2,1-0.5,2-0.7,3
		c-0.1,0.4-0.3,0.7-0.5,1c-0.3,0.3-0.6,0.4-0.8,0.4H93c-0.3,0-0.6-0.1-0.8-0.4c-0.3-0.3-0.5-0.6-0.5-1l-1.5-6.1v5.5
		c0,0.5-0.1,1-0.4,1.4c-0.3,0.4-0.6,0.6-1,0.6h-2.1c-0.4,0-0.7-0.2-1-0.6c-0.3-0.4-0.4-0.9-0.4-1.4V10.1c0-0.5,0.1-1,0.4-1.4
		c0.3-0.4,0.6-0.6,1-0.6H89.9z"/>
	<path d="M118.5,8.1c0.4,0,0.7,0.2,1,0.6c0.3,0.4,0.4,0.9,0.4,1.4v2.6c0,0.5-0.1,1-0.4,1.4c-0.3,0.4-0.6,0.6-1,0.6h-7.2v2.6h6.7
		c0.4,0,0.7,0.2,1,0.6c0.3,0.4,0.4,0.8,0.4,1.4v2.6c0,0.5-0.1,1-0.4,1.4c-0.3,0.4-0.6,0.6-1,0.6h-6.7v3.3h7.6c0.4,0,0.7,0.2,1,0.6
		c0.3,0.4,0.4,0.8,0.4,1.4v2.6c0,0.5-0.1,1-0.4,1.4c-0.3,0.4-0.6,0.6-1,0.6h-11.2c-0.4,0-0.7-0.2-1-0.6c-0.3-0.4-0.4-0.9-0.4-1.4
		V10.1c0-0.5,0.1-1,0.4-1.4c0.3-0.4,0.6-0.6,1-0.6H118.5z"/>
</g>
<g>
	<path d="M161.1,20.5c0,1.2,0.1,2.3,0.3,3.2c0.2,0.9,0.4,1.6,0.8,2.2s0.7,1,1.1,1.3c0.4,0.3,0.8,0.4,1.3,0.4c0.5,0,0.9-0.1,1.2-0.3
		c0.4-0.2,0.7-0.5,1-0.9c0.3-0.4,0.5-0.8,0.7-1.3c0.2-0.5,0.3-1,0.3-1.5c0-0.5,0.2-0.9,0.5-1.2c0.3-0.3,0.6-0.5,1-0.5h2.1
		c0.5,0,0.8,0.2,1.1,0.7c0.3,0.4,0.4,1,0.3,1.6c-0.1,1.4-0.4,2.7-0.8,4c-0.4,1.2-1,2.3-1.6,3.2c-0.7,0.9-1.5,1.6-2.4,2.1
		c-1,0.5-2,0.8-3.2,0.8c-1.3,0-2.5-0.3-3.6-0.9c-1.1-0.6-2-1.5-2.7-2.7c-0.7-1.2-1.3-2.6-1.7-4.3c-0.4-1.7-0.6-3.6-0.6-5.7
		c0-1.7,0.2-3.3,0.6-4.8c0.4-1.6,1-2.9,1.7-4.2c0.7-1.2,1.6-2.2,2.7-2.9c1.1-0.7,2.3-1.1,3.6-1.1c1.2,0,2.2,0.2,3.2,0.7
		c1,0.5,1.8,1.1,2.5,1.9c0.7,0.8,1.3,1.7,1.7,2.8c0.4,1.1,0.7,2.3,0.8,3.5c0.1,0.6-0.1,1.1-0.3,1.5c-0.3,0.4-0.6,0.6-1.1,0.6h-2.1
		c-0.3,0-0.6-0.1-0.9-0.4c-0.3-0.3-0.5-0.6-0.5-1c-0.2-1.1-0.6-1.8-1.1-2.3c-0.5-0.5-1.2-0.8-2.1-0.8c-0.5,0-1,0.2-1.4,0.5
		s-0.8,0.8-1.1,1.4c-0.3,0.6-0.5,1.3-0.7,2C161.1,18.9,161.1,19.7,161.1,20.5z"/>
	<path d="M183.4,34.2c-1.4,0-2.6-0.3-3.7-1c-1.1-0.7-2-1.6-2.8-2.8c-0.8-1.2-1.4-2.6-1.8-4.3c-0.4-1.6-0.6-3.4-0.6-5.4
		c0-1.9,0.2-3.7,0.6-5.4c0.4-1.6,1-3,1.8-4.2c0.8-1.2,1.7-2.1,2.8-2.7c1.1-0.6,2.3-1,3.7-1c1.4,0,2.6,0.3,3.7,1
		c1.1,0.6,2,1.5,2.8,2.7s1.4,2.6,1.8,4.2c0.4,1.6,0.6,3.4,0.6,5.4c0,1.9-0.2,3.7-0.6,5.4c-0.4,1.6-1,3.1-1.8,4.3
		c-0.8,1.2-1.7,2.1-2.8,2.8S184.7,34.2,183.4,34.2z M183.4,27.6c1.2,0,2.1-0.6,2.7-1.7c0.6-1.1,1-2.9,1-5.2c0-2.3-0.3-4-1-5.1
		c-0.6-1.1-1.5-1.6-2.7-1.6c-1.1,0-2,0.5-2.7,1.6c-0.6,1.1-1,2.8-1,5.1c0,2.3,0.3,4,1,5.2S182.2,27.6,183.4,27.6z"/>
	<path d="M198.2,8.1c0.4,0,0.7,0.2,1,0.6c0.3,0.4,0.4,0.9,0.4,1.4v17h6.3c0.4,0,0.7,0.2,1,0.6c0.3,0.4,0.4,0.8,0.4,1.4v2.6
		c0,0.5-0.1,1-0.4,1.4c-0.3,0.4-0.6,0.6-1,0.6h-9.9c-0.4,0-0.7-0.2-1-0.6c-0.3-0.4-0.4-0.9-0.4-1.4V10.1c0-0.5,0.1-1,0.4-1.4
		c0.3-0.4,0.6-0.6,1-0.6H198.2z"/>
	<path d="M212.6,8.1c0.4,0,0.7,0.2,1,0.6c0.3,0.4,0.4,0.9,0.4,1.4v17h6.3c0.4,0,0.7,0.2,1,0.6c0.3,0.4,0.4,0.8,0.4,1.4v2.6
		c0,0.5-0.1,1-0.4,1.4c-0.3,0.4-0.6,0.6-1,0.6h-9.9c-0.4,0-0.7-0.2-1-0.6c-0.3-0.4-0.4-0.9-0.4-1.4V10.1c0-0.5,0.1-1,0.4-1.4
		c0.3-0.4,0.6-0.6,1-0.6H212.6z"/>
	<path d="M235.7,8.1c0.4,0,0.7,0.2,1,0.6c0.3,0.4,0.4,0.9,0.4,1.4v2.6c0,0.5-0.1,1-0.4,1.4c-0.3,0.4-0.6,0.6-1,0.6h-7.2v2.6h6.7
		c0.4,0,0.7,0.2,1,0.6c0.3,0.4,0.4,0.8,0.4,1.4v2.6c0,0.5-0.1,1-0.4,1.4c-0.3,0.4-0.6,0.6-1,0.6h-6.7v3.3h7.6c0.4,0,0.7,0.2,1,0.6
		c0.3,0.4,0.4,0.8,0.4,1.4v2.6c0,0.5-0.1,1-0.4,1.4c-0.3,0.4-0.6,0.6-1,0.6h-11.2c-0.4,0-0.7-0.2-1-0.6c-0.3-0.4-0.4-0.9-0.4-1.4
		V10.1c0-0.5,0.1-1,0.4-1.4c0.3-0.4,0.6-0.6,1-0.6H235.7z"/>
	<path d="M244.6,20.5c0,1.2,0.1,2.3,0.3,3.2c0.2,0.9,0.4,1.6,0.8,2.2c0.3,0.6,0.7,1,1.1,1.3c0.4,0.3,0.8,0.4,1.3,0.4
		c0.5,0,0.9-0.1,1.2-0.3c0.4-0.2,0.7-0.5,1-0.9c0.3-0.4,0.5-0.8,0.7-1.3c0.2-0.5,0.3-1,0.3-1.5c0-0.5,0.2-0.9,0.5-1.2
		c0.3-0.3,0.6-0.5,1-0.5h2.1c0.5,0,0.8,0.2,1.1,0.7c0.3,0.4,0.4,1,0.3,1.6c-0.1,1.4-0.4,2.7-0.8,4c-0.4,1.2-1,2.3-1.6,3.2
		c-0.7,0.9-1.5,1.6-2.4,2.1c-1,0.5-2,0.8-3.2,0.8c-1.3,0-2.5-0.3-3.6-0.9c-1.1-0.6-2-1.5-2.7-2.7c-0.7-1.2-1.3-2.6-1.7-4.3
		c-0.4-1.7-0.6-3.6-0.6-5.7c0-1.7,0.2-3.3,0.6-4.8c0.4-1.6,1-2.9,1.7-4.2c0.7-1.2,1.6-2.2,2.7-2.9c1.1-0.7,2.3-1.1,3.6-1.1
		c1.2,0,2.2,0.2,3.2,0.7c1,0.5,1.8,1.1,2.5,1.9c0.7,0.8,1.3,1.7,1.7,2.8s0.7,2.3,0.8,3.5c0.1,0.6-0.1,1.1-0.3,1.5
		c-0.3,0.4-0.6,0.6-1.1,0.6h-2.1c-0.3,0-0.6-0.1-0.9-0.4c-0.3-0.3-0.5-0.6-0.5-1c-0.2-1.1-0.6-1.8-1.1-2.3c-0.5-0.5-1.2-0.8-2.1-0.8
		c-0.5,0-1,0.2-1.4,0.5c-0.4,0.4-0.8,0.8-1.1,1.4c-0.3,0.6-0.5,1.3-0.7,2C244.7,18.9,244.6,19.7,244.6,20.5z"/>
	<path d="M270.6,8.1c0.4,0,0.7,0.2,1,0.6c0.3,0.4,0.4,0.9,0.4,1.4v2.6c0,0.5-0.1,1-0.4,1.4s-0.6,0.6-1,0.6H267v17
		c0,0.5-0.1,1-0.4,1.4c-0.3,0.4-0.6,0.6-1,0.6h-2.1c-0.4,0-0.7-0.2-1-0.6c-0.3-0.4-0.4-0.9-0.4-1.4v-17h-3.6c-0.4,0-0.7-0.2-1-0.6
		s-0.4-0.9-0.4-1.4v-2.6c0-0.5,0.1-1,0.4-1.4c0.3-0.4,0.6-0.6,1-0.6H270.6z"/>
	<path d="M276.6,8.1c0.4,0,0.7,0.2,1,0.6c0.3,0.4,0.4,0.9,0.4,1.4v21.6c0,0.5-0.1,1-0.4,1.4c-0.3,0.4-0.6,0.6-1,0.6h-2.1
		c-0.4,0-0.7-0.2-1-0.6s-0.4-0.9-0.4-1.4V10.1c0-0.5,0.1-1,0.4-1.4c0.3-0.4,0.6-0.6,1-0.6H276.6z"/>
	<path d="M288.7,34.2c-1.4,0-2.6-0.3-3.7-1c-1.1-0.7-2-1.6-2.8-2.8c-0.8-1.2-1.4-2.6-1.8-4.3c-0.4-1.6-0.6-3.4-0.6-5.4
		c0-1.9,0.2-3.7,0.6-5.4c0.4-1.6,1-3,1.8-4.2s1.7-2.1,2.8-2.7c1.1-0.6,2.3-1,3.7-1c1.4,0,2.6,0.3,3.7,1c1.1,0.6,2,1.5,2.8,2.7
		s1.4,2.6,1.8,4.2c0.4,1.6,0.6,3.4,0.6,5.4c0,1.9-0.2,3.7-0.6,5.4c-0.4,1.6-1,3.1-1.8,4.3c-0.8,1.2-1.7,2.1-2.8,2.8
		S290,34.2,288.7,34.2z M288.7,27.6c1.2,0,2.1-0.6,2.7-1.7c0.6-1.1,1-2.9,1-5.2c0-2.3-0.3-4-1-5.1c-0.6-1.1-1.5-1.6-2.7-1.6
		c-1.1,0-2,0.5-2.7,1.6c-0.6,1.1-1,2.8-1,5.1c0,2.3,0.3,4,1,5.2C286.6,27.1,287.5,27.6,288.7,27.6z"/>
	<path d="M304.2,8.1c0.2,0,0.4,0.1,0.7,0.3s0.4,0.4,0.5,0.7l4.8,11.1V10.1c0-0.5,0.1-1,0.4-1.4c0.3-0.4,0.6-0.6,1-0.6h2.1
		c0.4,0,0.7,0.2,1,0.6c0.3,0.4,0.4,0.9,0.4,1.4v21.6c0,0.5-0.1,1-0.4,1.4s-0.6,0.6-1,0.6h-2.6c-0.2,0-0.4-0.1-0.7-0.3
		c-0.3-0.2-0.5-0.4-0.6-0.7l-4.9-11.2v10.2c0,0.5-0.1,1-0.4,1.4c-0.3,0.4-0.6,0.6-1,0.6h-2.1c-0.4,0-0.7-0.2-1-0.6s-0.4-0.9-0.4-1.4
		V10.1c0-0.5,0.1-1,0.4-1.4c0.3-0.4,0.6-0.6,1-0.6H304.2z"/>
</g>
<g>
	<path d="M137.7,8.4h1.4V7.5h-1.4c-0.3,0-0.5,0.2-0.5,0.5C137.3,8.2,137.5,8.4,137.7,8.4L137.7,8.4z"/>
	<path d="M136.6,30.5L136.6,30.5C136.6,30.5,136.6,30.5,136.6,30.5c0.1,0.1,0.1,0.1,0.1,0.2c0.2,0.4,0.5,0.6,0.9,0.7
		c0.4,0.1,0.7,0,1-0.3c0,0,0,0,0,0c0,0,0,0,0,0c0.3-0.3,0.4-0.7,0.3-1.1c-0.1-0.4-0.4-0.7-0.7-0.9c0,0,0,0-0.1,0c0,0,0,0,0,0
		c0,0,0,0,0,0l-0.3-0.1l-2.8-1.4L136.6,30.5z"/>
	<path d="M130.5,20c0,0.1,0.1,0.1,0.1,0.2l0.4,0.7c0,0,0,0,0,0.1l1.3,2.4c0.1-0.1,0.3-0.1,0.4-0.1l0-1.5c0-0.3,0.2-0.5,0.5-0.5h0h0
		c0.3,0,0.5,0.2,0.5,0.5l0,1.5c0.2,0,0.4,0.1,0.5,0.2l1.2-2.5c0,0,0,0,0,0l0.2-0.4l0.2-0.3c0,0,0,0,0-0.1c0,0,0,0,0,0
		c0.1-0.2,0.1-0.3,0.1-0.5c0-0.8-0.2-1.5-0.8-2.1c-0.5-0.6-1.2-0.9-2-0.9h0c-0.8,0-1.5,0.3-2,0.9c-0.5,0.6-0.8,1.3-0.7,2.1
		C130.4,19.7,130.4,19.9,130.5,20L130.5,20z"/>
	<path d="M136.9,26l-1.5,0c0,0.2-0.1,0.3-0.1,0.4l2.4,1.3c0,0,0,0,0,0l0.4,0.2l0.3,0.2c0,0,0,0,0,0c0,0,0,0,0.1,0
		c0.2,0.1,0.3,0.1,0.5,0.1c0.8,0,1.5-0.2,2-0.8c1.1-1.1,1.1-2.8,0.1-4c0,0-0.1-0.1-0.1-0.1c-0.6-0.5-1.3-0.8-2-0.7
		c-0.2,0-0.4,0.1-0.6,0.2l-0.5,0.3l-0.2,0.1c0,0,0,0,0,0l-2.4,1.3c0.1,0.2,0.1,0.3,0.2,0.5l1.5,0h0c0.3,0,0.5,0.2,0.5,0.5
		S137.2,26,136.9,26L136.9,26z"/>
	<path d="M138.2,11.5h5.9v2.8h-5.9V11.5z"/>
	<path d="M139.6,5.3h3.2v5.3h-3.2V5.3z"/>
	<path d="M145.6,8.9c0.9,0.6,1.6,0.4,2,0.1c0.5-0.5,0.5-1.4,0-2c-0.7-0.7-1.7-0.1-2,0.1c0,0,0,0,0,0l-1.5,0.9L145.6,8.9
		C145.6,8.9,145.6,8.9,145.6,8.9L145.6,8.9z"/>
	<path d="M149.7,19.1c-1.3-1.8-3.1-3.1-5.2-3.8h-6.7c-0.9,0.3-1.7,0.7-2.5,1.2c0.1,0.1,0.3,0.2,0.4,0.4c0.3,0.3,0.5,0.6,0.7,1
		c0.6-0.4,1.3-0.7,2.1-1c0,0,0.1,0,0.1,0h5.2c0,0,0.1,0,0.1,0c4.7,1.5,7.2,6.6,5.7,11.4c-0.7,2.3-2.4,4.2-4.5,5.3
		c-0.1,0-0.1,0-0.2,0h-7.5c-0.1,0-0.1,0-0.2,0c-0.2-0.1-0.4-0.2-0.6-0.4c-0.2,0.4-0.4,0.8-0.7,1.1c-0.1,0.1-0.2,0.2-0.4,0.3
		c0.3,0.2,0.6,0.4,0.8,0.5h9.6c5.2-2.7,7.3-9.2,4.6-14.5C150.3,20.1,150,19.6,149.7,19.1L149.7,19.1z"/>
	<path d="M128.6,28.9l-0.3,0.2c0,0,0,0,0,0c0,0,0,0,0,0c0,0,0,0-0.1,0c-0.4,0.2-0.6,0.5-0.7,0.9c-0.1,0.4,0,0.8,0.3,1.1c0,0,0,0,0,0
		s0,0,0,0c0.3,0.3,0.6,0.4,1,0.3c0.4-0.1,0.7-0.4,0.9-0.7c0,0,0-0.1,0-0.1c0,0,0,0,0,0l0,0l1.6-3.1L128.6,28.9z"/>
	<path d="M127.8,28.2C127.9,28.2,127.9,28.2,127.8,28.2l0.3-0.2l0.4-0.2c0,0,0,0,0,0l2.4-1.3c-0.1-0.1-0.1-0.3-0.1-0.4l-1.5,0h0
		c-0.3,0-0.5-0.2-0.5-0.5c0-0.3,0.2-0.5,0.4-0.5c0,0,0,0,0,0l1.5,0c0-0.2,0.1-0.4,0.2-0.5l-3.2-1.6c-0.2-0.1-0.4-0.2-0.6-0.2
		c-0.8,0-1.5,0.2-2,0.8c-1.1,1.1-1.1,2.8-0.1,4c0,0,0.1,0.1,0.1,0.1c0.6,0.5,1.3,0.8,2,0.7C127.5,28.4,127.6,28.3,127.8,28.2
		C127.8,28.2,127.8,28.2,127.8,28.2z"/>
	<path d="M136,31.5c0-0.2,0-0.3-0.1-0.5c0,0,0-0.1-0.1-0.1l0,0l0,0l-0.4-0.7c0,0,0,0,0-0.1l-1.3-2.5c-0.2,0.1-0.3,0.1-0.5,0.2l0,1.5
		c0,0.3-0.2,0.5-0.5,0.5c0,0,0,0,0,0h0c-0.3,0-0.5-0.2-0.5-0.5l0-1.5c-0.2,0-0.3-0.1-0.4-0.1l-1.2,2.5c0,0,0,0,0,0.1l-0.3,0.7l0,0
		c0,0,0,0,0,0c0,0,0,0.1-0.1,0.1c-0.1,0.2-0.1,0.3-0.1,0.5c0,0.8,0.2,1.5,0.8,2.1c0.5,0.6,1.2,0.9,2,0.9h0c0.8,0,1.5-0.3,2-0.9
		C135.7,33,136,32.3,136,31.5L136,31.5z"/>
	<path d="M136.6,20.4C136.6,20.5,136.5,20.5,136.6,20.4C136.5,20.5,136.5,20.5,136.6,20.4l-0.2,0.4l-1.4,2.8l2.6-1.4L138,22
		c0,0,0,0,0,0c0,0,0,0,0.1,0c0,0,0,0,0,0c0.4-0.2,0.6-0.5,0.7-0.9c0.1-0.4,0-0.8-0.3-1.1c0,0,0,0,0,0c0,0,0,0,0,0
		c-0.3-0.3-0.6-0.4-1-0.3C137.1,19.7,136.7,20,136.6,20.4C136.6,20.4,136.6,20.4,136.6,20.4L136.6,20.4z"/>
	<path d="M144.9,32.6c1.3-0.7,2.3-1.7,3.1-2.9c0.8-1.3,1.2-2.8,1.2-4.3c0-3.5-2.2-6.6-5.4-7.7h-5c-0.7,0.3-1.4,0.6-2,1
		c0,0.1,0,0.1,0,0.2c0.2-0.1,0.3-0.2,0.5-0.2c0.6-0.2,1.3,0,1.8,0.5c0,0,0,0,0.1,0.1c0,0,0,0,0.1,0.1c0.5,0.5,0.7,1.2,0.5,1.9
		c0,0.2-0.1,0.4-0.2,0.5c0.8,0.1,1.5,0.4,2.1,1c1.5,1.4,1.6,3.8,0.2,5.3c0,0.1-0.1,0.1-0.1,0.1c-0.6,0.6-1.3,0.9-2.1,1
		c0.1,0.2,0.1,0.3,0.2,0.5c0.2,0.7,0,1.4-0.5,1.9c0,0,0,0-0.1,0.1c0,0,0,0-0.1,0.1c-0.4,0.4-0.9,0.6-1.4,0.6c-0.1,0-0.3,0-0.4,0
		c-0.2,0-0.4-0.1-0.5-0.2c0,0,0,0,0,0.1c0.3,0.2,0.5,0.3,0.7,0.5L144.9,32.6z"/>
	<path d="M128.2,22.1C128.2,22.1,128.2,22.1,128.2,22.1l0.8,0.4c0,0,0,0,0,0l2.3,1.2l-1.6-3.1c0-0.1-0.1-0.1-0.1-0.2
		c-0.2-0.3-0.5-0.6-0.9-0.7c-0.4-0.1-0.7,0-1,0.3c0,0,0,0,0,0c0,0,0,0,0,0c-0.3,0.3-0.4,0.7-0.3,1.1
		C127.5,21.6,127.8,21.9,128.2,22.1L128.2,22.1z"/>
	<ellipse cx="133.2" cy="25.5" rx="1.4" ry="1.4"/>
</g>
</svg>
