<?xml version="1.0" encoding="utf-8"?>
<!-- Generator: Adobe Illustrator 23.0.1, SVG Export Plug-In . SVG Version: 6.00 Build 0)  -->
<svg version="1.1" id="Layer_1" xmlns="http://www.w3.org/2000/svg" xmlns:xlink="http://www.w3.org/1999/xlink" x="0px" y="0px"
	 viewBox="0 0 200 30" style="enable-background:new 0 0 200 30;" xml:space="preserve">
<style type="text/css">
	.st0{fill:#26276D;}
	.st1{fill:#C8C3CA;}
	.st2{fill:#B2ACB5;}
	.st3{fill:#8D8290;}
	.st4{fill:#FFE07E;}
	.st5{fill:#FFD067;}
	.st6{fill:#F9F9FA;}
	.st7{fill:#A29AA5;}
	.st8{fill:#F2F2F2;}
	.st9{fill:#F9C9DD;}
	.st10{fill:#776E79;}
	.st11{fill:#F6AECE;}
</style>
<g>
	<path class="st0" d="M24.9,11.6c0.3-0.1,0.5-0.1,0.9-0.1s0.6,0,0.9,0s0.4,0.1,0.5,0.1c0.1,0.1,0,0.1-0.3,0.2
		c-1,0.3-1.8,0.7-2.5,1.1c-0.7,0.4-1.4,0.8-2,1.2s-1.1,0.9-1.6,1.3c-0.5,0.4-0.9,0.8-1.3,1.2c-1,1-1.9,1.9-2.7,2.8S15,21.3,14,22.3
		c-0.9,0.9-1.9,1.9-2.8,2.8c-0.9,0.9-2,1.8-3.2,2.7c-0.5,0.4-1.1,0.7-1.7,1S5,29.4,4.2,29.6c-0.4,0.1-0.8,0.1-1.2,0.1
		s-0.9-0.1-1.3-0.2c-0.3-0.1-0.6-0.2-0.8-0.3c-0.2-0.1-0.4-0.1-0.5-0.2s-0.2-0.1-0.1-0.1s0.2,0,0.4,0.1s0.4,0.2,0.7,0.3
		s0.7,0.2,1.1,0.2s0.9,0,1.4-0.1c0.8-0.2,1.5-0.5,2.1-0.9s1.2-0.7,1.6-1.1c1.2-0.9,2.2-1.8,3-2.8s1.8-1.9,2.7-2.9s1.8-1.9,2.5-2.8
		s1.6-1.8,2.5-2.8c0.4-0.4,0.8-0.9,1.2-1.3c0.4-0.4,0.8-0.9,1.3-1.3c0.5-0.4,1-0.8,1.6-1.1C23.3,12.1,24,11.8,24.9,11.6z M30.1,13.2
		c0.2,0.1,0.3,0.3,0.3,0.5c0,0.1-0.1,0.2-0.2,0.3s-0.3,0.2-0.4,0.2c-0.4,0.2-0.8,0.3-1.3,0.3s-1,0.1-1.5,0c-0.5,0-1-0.1-1.5-0.2
		c-0.2,0-0.4-0.1-0.6-0.1c-0.2-0.1-0.4-0.1-0.6-0.2v-0.1h0.1c0.4,0.1,0.6,0.2,0.8,0.3c0.2,0.1,0.5,0.1,0.9,0.1s0.7,0.1,0.9,0.1
		s0.5-0.1,0.9-0.1c0.4-0.1,0.7-0.2,0.9-0.4c0.2-0.2,0.2-0.3,0.1-0.5s-0.3-0.3-0.5-0.4c-0.3-0.1-0.5-0.1-0.8-0.2
		c-0.8,0-1.6,0.1-2.5,0.4c-0.9,0.3-1.6,0.6-2.4,1c-0.8,0.5-1.6,1-2.4,1.5s-1.4,1.1-2,1.7h-0.1l0,0c0.3-0.3,0.5-0.6,0.9-0.9
		c0.3-0.3,0.7-0.6,1.1-0.8c0.7-0.5,1.4-1,2.2-1.4c0.3-0.2,0.7-0.4,1.1-0.6s0.8-0.4,1.2-0.5c0.4-0.1,0.9-0.3,1.4-0.3s1-0.1,1.5-0.1
		c0.4,0,0.8,0.1,1.2,0.2C29.5,12.9,29.9,13.1,30.1,13.2z"/>
	<path class="st0" d="M39.6,13.7C39.7,13.7,39.7,13.7,39.6,13.7C39.7,13.7,39.7,13.7,39.6,13.7c0.1,0.1,0,0.1-0.2,0.2
		c-0.2,0.1-0.3,0.1-0.5,0.2c-0.2,0.1-0.3,0.1-0.5,0.2c-0.1,0.1-0.2,0.1-0.3,0.1l-0.5,0.2c-0.2,0.1-0.4,0.1-0.6,0.2
		c-0.2,0.1-0.4,0.1-0.6,0.2c-0.5,0.1-0.9,0.3-1.4,0.4s-1,0.2-1.5,0.3c-0.4,0.1-0.9,0.1-1.4,0.1s-1,0-1.3-0.1s-0.5-0.3-0.5-0.5
		c0-0.1,0-0.3,0-0.4c0-0.1,0.1-0.3,0.1-0.4c0.2-0.3,0.4-0.6,0.8-0.9c0.3-0.3,0.7-0.6,1-0.8c0.2-0.1,0.4-0.2,0.6-0.3
		c0.2-0.1,0.4-0.1,0.6-0.2c0.3-0.1,0.6-0.1,1-0.2c0.4,0,0.7,0,1,0s0.6,0.1,0.8,0.2c0.2,0.1,0.3,0.3,0.4,0.4c0,0.1-0.1,0.2-0.2,0.3
		c-0.1,0.1-0.3,0.3-0.5,0.4c-0.2,0.1-0.5,0.2-0.7,0.3c-0.3,0.1-0.6,0.2-0.9,0.3C34,14,33.7,14,33.4,14.1c-0.3,0.1-0.6,0.1-1,0.2
		s-0.7,0.1-1,0.2c-0.1,0-0.1,0-0.1,0s0,0,0.1-0.1c0.4-0.1,0.9-0.2,1.5-0.3s1-0.2,1.5-0.3c0.3-0.1,0.5-0.2,0.8-0.3s0.5-0.2,0.7-0.3
		c0.1-0.1,0.2-0.1,0.2-0.2s0.1-0.1,0.2-0.2c0.1-0.1,0.1-0.2,0-0.3s-0.2-0.1-0.3-0.1s-0.3,0-0.5,0c-0.5,0-1,0.1-1.3,0.3
		c-0.5,0.1-0.9,0.3-1.3,0.6c-0.2,0.1-0.4,0.2-0.6,0.4s-0.4,0.3-0.5,0.4c-0.3,0.2-0.4,0.4-0.5,0.7s0,0.4,0.2,0.6
		c0.2,0.1,0.5,0.2,0.8,0.2s0.7,0,1.2-0.1s1-0.2,1.4-0.3s0.9-0.3,1.4-0.4c0.2-0.1,0.4-0.1,0.6-0.2c0.2-0.1,0.4-0.1,0.6-0.2l0.5-0.2
		c0,0,0.1-0.1,0.3-0.1c0.2-0.1,0.3-0.1,0.5-0.2c0.2-0.1,0.3-0.1,0.5-0.2C39.5,13.7,39.6,13.7,39.6,13.7z"/>
	<path class="st0" d="M50,13.6C50.1,13.6,50.1,13.6,50,13.6C50.1,13.6,50.1,13.6,50,13.6c-0.3,0.2-0.6,0.4-1,0.5s-0.8,0.3-1.2,0.4
		c-0.4,0.1-0.8,0.2-1.2,0.2s-0.8,0-1.1,0c-0.4,0-0.7-0.1-0.9-0.3s-0.3-0.4-0.4-0.6c0-0.1,0-0.3,0.1-0.4s0.2-0.3,0.2-0.5
		c0.1-0.1,0.2-0.3,0.2-0.4c0-0.1,0-0.1-0.1-0.1s-0.3,0-0.6,0.1s-0.6,0.1-0.9,0.1s-0.6,0.1-0.9,0.1c-0.3,0-0.4,0.1-0.4,0.1
		c-0.1,0.2-0.2,0.5-0.4,0.7S41,14,40.7,14.2c-0.3,0.3-0.6,0.5-1,0.8c-0.3,0.3-0.7,0.5-1,0.8c-0.1,0.1-0.3,0.2-0.5,0.3
		s-0.4,0.1-0.6,0.1c-0.2,0-0.3,0-0.4,0s0-0.1,0.1-0.2c0.4-0.3,0.8-0.6,1.1-0.9c0.3-0.3,0.6-0.6,0.9-0.9c0.1-0.2,0.3-0.3,0.4-0.5
		s0.2-0.3,0.3-0.5c-0.2,0-0.4,0-0.6-0.1c-0.2-0.1-0.3-0.2-0.3-0.3c0-0.2,0.2-0.3,0.5-0.4c0.2,0,0.4-0.1,0.6-0.1s0.5,0,0.7,0.1
		s0.4,0.1,0.6,0.2s0.3,0.2,0.3,0.4c0.6-0.1,1.1-0.1,1.6-0.2c0.5-0.1,0.9-0.2,1.3-0.3s0.7-0.2,1-0.2s0.5,0,0.7,0
		c0.2,0.1,0.3,0.2,0.2,0.3s-0.2,0.2-0.4,0.4c-0.2,0.1-0.3,0.3-0.5,0.4c-0.2,0.1-0.3,0.3-0.4,0.4c-0.1,0.2-0.1,0.4,0,0.7
		s0.3,0.4,0.8,0.4c0.6,0.1,1.3,0,2-0.2C48.8,14.1,49.4,13.9,50,13.6z"/>
	<path class="st0" d="M76,2c0.3,0.3,0.4,0.6,0.3,0.9c0,0.3-0.1,0.6-0.3,0.9c-0.2,0.4-0.5,0.8-0.9,1.1S74.4,5.7,74,6
		c-1,0.8-2.2,1.4-3.4,2c-1.2,0.6-2.5,1.1-3.9,1.6C66.1,9.7,65.6,9.9,65,10s-1.2,0.2-1.8,0.2c-0.2,0-0.3,0-0.5,0s-0.2-0.1-0.2-0.1V10
		c0,0,0.2,0,0.4,0c0.3,0,0.7,0,1-0.1c0.7-0.1,1.4-0.2,2.1-0.4c0.6-0.2,1.3-0.3,1.9-0.6c0.7-0.3,1.4-0.5,2.1-0.8s1.3-0.6,1.8-0.9
		c0.6-0.3,1.1-0.7,1.7-1c0.5-0.3,1-0.7,1.4-1.1c0.4-0.3,0.7-0.7,0.9-1s0.4-0.7,0.4-1.1c0-0.2,0-0.3-0.1-0.5S75.9,2.2,75.7,2
		c-0.1-0.1-0.3-0.2-0.5-0.3s-0.6-0.3-1-0.4S73.3,1.1,72.7,1s-1.3-0.1-2.2,0c-0.9,0-1.8,0.1-2.7,0.2S66,1.6,65.3,1.8
		C64.5,2,63.7,2.3,63,2.6s-1.4,0.7-2.1,1c-1.4,0.8-2.6,1.7-3.6,2.6s-1.9,1.9-2.7,2.9s-1.5,2-2.1,3c-0.7,1-1.3,2-2,3
		c-0.3,0.4-0.6,0.8-0.8,1.1c-0.3,0.4-0.5,0.8-0.8,1.1s-0.5,0.8-0.8,1.1s-0.5,0.7-0.9,1.1c-0.1,0.2-0.4,0.5-0.7,0.8
		c-0.3,0.4-0.7,0.8-1,1.2s-0.7,0.8-1.1,1.2c-0.3,0.4-0.6,0.6-0.8,0.8c-0.4,0.3-0.8,0.6-1.2,0.9s-0.9,0.5-1.5,0.7
		c-0.5,0.2-1,0.3-1.6,0.4s-1.2,0.1-1.8,0.1c-0.8,0-1.7-0.1-2.5-0.3s-1.6-0.4-2.3-0.7c-0.1,0-0.1,0,0,0h0.1c0.4,0.1,0.7,0.3,1.1,0.4
		c0.4,0.1,0.8,0.2,1.3,0.3c0.7,0.1,1.3,0.2,2,0.2s1.3,0,2-0.2c0.7-0.1,1.2-0.3,1.7-0.5s0.9-0.5,1.3-0.7c0.5-0.3,0.9-0.7,1.5-1.3
		c0.5-0.6,1-1.1,1.5-1.7s0.9-1.2,1.3-1.8s0.7-1,1-1.4c0.6-0.8,1.1-1.6,1.6-2.4c0.5-0.8,1-1.6,1.6-2.5c0.6-1,1.3-2,2-3.1s1.5-2,2.3-3
		c0.8-0.9,1.8-1.8,2.9-2.6c1.1-0.9,2.4-1.6,4-2.3c0.7-0.3,1.4-0.5,2.1-0.7c0.4-0.1,0.8-0.2,1.2-0.3c0.4-0.1,0.8-0.1,1.2-0.2
		c0.9-0.1,1.8-0.2,2.8-0.2s1.9,0,2.8,0.1c0.8,0.1,1.6,0.3,2.3,0.5S75.7,1.7,76,2z M64.3,10.9c0.4,0,0.6,0,0.7,0s0.1,0.1,0.1,0.2
		c-0.1,0.1-0.2,0.1-0.3,0.2c-0.2,0.1-0.3,0.1-0.5,0.1h-4.8h-0.8h-4.6H53h-6.2c-0.1,0-0.1,0-0.1-0.1c0,0,0-0.1,0.1-0.1
		c0.3,0,0.8,0,1.7,0s1.9,0,3.1,0s2.5,0,3.8-0.1s2.7-0.1,3.9-0.1s2.3-0.1,3.2-0.1C63.3,10.9,64,10.9,64.3,10.9z"/>
	<path class="st0" d="M65.7,13c-0.4,0.2-0.8,0.4-1.1,0.6S64,14,63.7,14.3c-0.1,0.1-0.3,0.3-0.4,0.4s-0.1,0.3-0.1,0.4
		c0.1,0.2,0.2,0.3,0.6,0.3c0.3,0,0.7,0,1.2-0.1s0.9-0.2,1.5-0.4s1-0.4,1.5-0.5s0.9-0.3,1.2-0.5s0.6-0.2,0.6-0.3c0.1,0,0.1,0,0.2,0
		s0,0.1,0,0.1c-0.1,0-0.3,0.1-0.7,0.3c-0.4,0.1-0.9,0.3-1.4,0.5s-1.1,0.4-1.7,0.6c-0.6,0.2-1.2,0.3-1.8,0.5
		c-0.6,0.1-1.1,0.2-1.5,0.2s-0.7-0.1-0.9-0.3c-0.1-0.1-0.2-0.3-0.2-0.4s0-0.3,0.1-0.5s0.3-0.4,0.4-0.6s0.3-0.4,0.5-0.5
		c-0.1,0.1-0.2,0.1-0.3,0.2c-0.1,0.1-0.2,0.1-0.3,0.2c-0.7,0.4-1.3,0.8-2.1,1.2s-1.7,0.6-2.6,0.8C57.1,16,56.7,16,56.3,16
		s-0.8,0-1.2-0.1c-0.3,0-0.5-0.1-0.6-0.2s-0.2-0.3-0.3-0.4c-0.1-0.2,0-0.4,0.1-0.6c0.1-0.2,0.2-0.4,0.4-0.5c0.1-0.2,0.3-0.4,0.5-0.6
		c0.2-0.2,0.5-0.3,0.7-0.5c0.2-0.1,0.3-0.2,0.4-0.2c0.1,0,0.3-0.1,0.6-0.3c0.3-0.1,0.5-0.2,0.9-0.2c0.3,0,0.6-0.1,0.9-0.1
		c0.3,0,0.5,0,0.5,0.1s0,0.1-0.2,0.2c-0.2,0.1-0.4,0.2-0.7,0.3s-0.5,0.2-0.8,0.3s-0.6,0.3-0.9,0.4S56,13.8,55.8,14
		c-0.1,0.1-0.2,0.2-0.3,0.3s-0.3,0.3-0.4,0.4s-0.2,0.3-0.2,0.4s0,0.3,0.1,0.3c0.2,0.1,0.4,0.2,0.7,0.3c0.3,0,0.6,0,0.9,0
		c0.5,0,1-0.1,1.5-0.2s1-0.2,1.4-0.4c0.9-0.3,1.6-0.7,2.1-1c0.5-0.4,1.2-0.7,1.9-1.1c0.1-0.1,0.4-0.1,0.7-0.1c0.3,0,0.6,0,0.9,0
		S65.6,13,65.7,13C65.9,12.9,65.9,12.9,65.7,13z"/>
	<path class="st0" d="M83.5,16.9c0.1-0.1,0.2-0.1,0.3-0.1s0.1,0.1-0.1,0.1c-0.3,0.1-0.5,0.3-0.8,0.4s-0.5,0.3-0.8,0.4
		C82,17.9,81.8,18,81.6,18s-0.4,0.1-0.6,0.2c-0.2,0-0.3,0-0.6,0.1c-0.2,0-0.4,0-0.6,0c-0.2-0.1-0.4-0.2-0.5-0.3s-0.2-0.2-0.2-0.3
		c-0.1-0.4-0.1-0.8,0-1.1c0.1-0.4,0.3-0.8,0.6-1.1s0.6-0.7,1-1.1c0.7-0.6,1.5-1.2,2.3-1.7c-0.2,0.1-0.5,0.2-0.8,0.3
		s-0.5,0.2-0.7,0.4c-0.1,0.1-0.3,0.2-0.5,0.3s-0.4,0.2-0.6,0.3s-0.4,0.2-0.5,0.3c-0.2,0.1-0.3,0.2-0.4,0.2c-0.2,0.1-0.4,0.3-0.7,0.4
		c-0.2,0.1-0.4,0.3-0.7,0.4c-0.2,0.1-0.4,0.2-0.7,0.4c-0.2,0.1-0.5,0.2-0.7,0.3c-0.2,0.1-0.4,0.1-0.6,0.2s-0.5,0.1-0.7,0.1
		c-0.1,0-0.3,0-0.5,0s-0.3,0-0.4-0.1s-0.2-0.1-0.2-0.2s-0.1-0.2-0.1-0.2c0-0.1,0-0.2,0-0.3s0.1-0.2,0.1-0.3c0.1-0.3,0.3-0.5,0.5-0.7
		s0.4-0.5,0.6-0.7l0,0c-0.1,0-0.1,0.1-0.1,0.1L75.2,14c-0.4,0.2-0.8,0.5-1.1,0.7c-0.4,0.3-0.8,0.5-1.2,0.7c-0.4,0.2-0.8,0.4-1.3,0.5
		C71.4,16,71.2,16,71,16s-0.4,0.1-0.7,0.1c-0.5,0-0.9-0.1-1.3-0.1c-0.3-0.1-0.6-0.2-0.6-0.4c-0.1-0.1-0.1-0.2-0.1-0.3s0-0.2,0.1-0.3
		s0.1-0.2,0.2-0.3s0.2-0.2,0.3-0.3c0.2-0.2,0.5-0.4,0.8-0.6c0.3-0.2,0.6-0.4,1-0.6c0.1-0.1,0.3-0.2,0.4-0.3s0.3-0.2,0.4-0.2
		c0.2-0.1,0.5-0.2,0.7-0.3c0.3-0.1,0.6-0.1,1-0.1s0.7,0.1,0.9,0.2s0.4,0.2,0.5,0.3s-0.1,0.2-0.4,0.3c-0.5,0.1-0.9,0.3-1.3,0.4
		c-0.8,0.3-1.6,0.6-2.3,0.9c-0.3,0.2-0.6,0.3-0.9,0.5c-0.1,0.1-0.2,0.1-0.3,0.2s-0.1,0.2-0.2,0.3c-0.1,0.2,0,0.3,0.2,0.4
		c0.1,0.1,0.2,0.1,0.3,0.1c0.1,0,0.2,0,0.3,0c0.4,0,0.8,0,1.2-0.1c0.5-0.1,0.9-0.3,1.3-0.5c0.9-0.4,1.7-0.9,2.4-1.4
		c0.3-0.2,0.6-0.4,0.8-0.6s0.5-0.4,0.8-0.6h0.1c0,0,0,0,0.1,0c0.2-0.1,0.4-0.2,0.7-0.2c0.3,0,0.6,0,0.9,0s0.5,0.1,0.6,0.2
		s0.1,0.2-0.2,0.3l-0.1,0.1c0-0.1-0.1-0.1-0.2-0.1c-0.7,0.4-1.3,0.7-1.8,1.1c-0.1,0.1-0.3,0.2-0.4,0.3s-0.3,0.2-0.4,0.3
		c-0.3,0.2-0.5,0.4-0.6,0.6l-0.1,0.1c0,0.1,0,0.1-0.1,0.1v0.1v0.1l0,0l0,0l0,0l0,0l0,0l0,0l0,0c0.1,0,0.1,0,0.2,0s0.1,0,0.2,0
		c0.2,0,0.4,0,0.5,0s0.3-0.1,0.4-0.1c0.3-0.1,0.5-0.2,0.8-0.3c0.2-0.1,0.4-0.2,0.7-0.3s0.4-0.2,0.7-0.4s0.4-0.3,0.7-0.4
		c0.1-0.1,0.3-0.1,0.5-0.3c0.2-0.1,0.5-0.3,0.7-0.4c0.3-0.1,0.5-0.3,0.7-0.4c0.2-0.1,0.4-0.2,0.5-0.3c0.3-0.2,0.6-0.3,0.8-0.4
		c0.3-0.1,0.6-0.2,1-0.3c0.3-0.1,0.5-0.1,0.8-0.1s0.6,0,0.8,0c0.2,0,0.4,0.1,0.4,0.1c0.1,0.1,0,0.1-0.2,0.2
		c-0.4,0.2-0.7,0.3-1.1,0.5s-0.7,0.3-1,0.5c-0.5,0.3-1,0.6-1.4,0.9s-0.9,0.7-1.2,1c-0.3,0.3-0.6,0.7-0.7,1c-0.1,0.2-0.1,0.4-0.1,0.5
		c0,0.2,0,0.3,0.1,0.4c0,0.1,0,0.1,0.1,0.1l0.1,0.1c0.1,0,0.2,0.1,0.5,0.1c0.2,0,0.4,0,0.5,0s0.3-0.1,0.4-0.1
		c0.4-0.1,0.7-0.2,0.9-0.4C82.7,17.5,83.1,17.3,83.5,16.9z"/>
	<path class="st0" d="M94.8,13.7C94.9,13.7,94.9,13.7,94.8,13.7C94.9,13.7,94.9,13.7,94.8,13.7c0.1,0.1,0,0.1-0.2,0.2
		c-0.2,0.1-0.3,0.1-0.5,0.2c-0.2,0.1-0.3,0.1-0.5,0.2c-0.1,0.1-0.2,0.1-0.3,0.1l-0.5,0.2c-0.2,0.1-0.4,0.1-0.6,0.2
		c-0.2,0.1-0.4,0.1-0.6,0.2c-0.4,0.1-0.9,0.3-1.4,0.4c-0.5,0.1-1,0.2-1.5,0.3c-0.4,0.1-0.9,0.1-1.4,0.1s-0.9,0-1.3-0.1
		c-0.3-0.1-0.5-0.3-0.6-0.5c0-0.1,0-0.3,0-0.4c0-0.1,0.1-0.3,0.2-0.4c0.2-0.3,0.4-0.6,0.8-0.9c0.3-0.3,0.7-0.6,1-0.8
		c0.2-0.1,0.4-0.2,0.6-0.3s0.4-0.1,0.6-0.2c0.3-0.1,0.6-0.1,1-0.2c0.4,0,0.7,0,1,0s0.6,0.1,0.8,0.2c0.2,0.1,0.3,0.3,0.4,0.4
		c0,0.1-0.1,0.2-0.2,0.3s-0.3,0.3-0.6,0.4c-0.2,0.1-0.4,0.2-0.7,0.3c-0.3,0.1-0.6,0.2-0.9,0.3s-0.6,0.1-0.9,0.2
		c-0.3,0.1-0.6,0.1-1,0.2s-0.7,0.1-1,0.2c-0.1,0-0.1,0-0.1,0s0,0,0.1-0.1c0.4-0.1,0.9-0.2,1.5-0.3s1.1-0.2,1.5-0.3
		c0.3-0.1,0.6-0.2,0.8-0.3s0.5-0.2,0.7-0.3c0.1-0.1,0.2-0.1,0.2-0.2s0.1-0.1,0.2-0.2c0.1-0.1,0.1-0.2,0-0.3s-0.2-0.1-0.3-0.1
		s-0.3,0-0.5,0c-0.5,0-0.9,0.1-1.3,0.3c-0.4,0.1-0.9,0.3-1.3,0.6c-0.2,0.1-0.4,0.2-0.6,0.4S87,14,86.9,14.1
		c-0.3,0.2-0.4,0.4-0.6,0.7s0,0.4,0.2,0.6c0.2,0.1,0.5,0.2,0.8,0.2s0.7,0,1.2-0.1s0.9-0.2,1.4-0.3s0.9-0.3,1.4-0.4
		c0.2-0.1,0.4-0.1,0.6-0.2c0.2-0.1,0.4-0.1,0.6-0.2l0.5-0.2c0,0,0.1-0.1,0.3-0.1c0.2-0.1,0.3-0.1,0.5-0.2c0.2-0.1,0.3-0.1,0.5-0.2
		C94.6,13.7,94.7,13.7,94.8,13.7z"/>
</g>
<g>
	<path class="st0" d="M121.9,13.7L121.9,13.7c0,0.1-0.1,0.1-0.3,0.2c-0.2,0.1-0.4,0.2-0.6,0.3s-0.4,0.2-0.6,0.3s-0.3,0.1-0.3,0.1
		c-0.1,0-0.2,0.1-0.3,0.1c-0.1,0.1-0.3,0.1-0.4,0.1s-0.3,0.1-0.4,0.1c-0.4,0.2-0.8,0.3-1.3,0.4c-0.4,0.1-0.9,0.3-1.3,0.4
		c-0.5,0.1-0.9,0.2-1.4,0.3c-0.5,0.1-0.9,0.1-1.4,0.1c-0.4,0-0.8,0-1.2-0.1c-0.4-0.1-0.7-0.2-1-0.3s-0.5-0.3-0.6-0.6
		c-0.1-0.1-0.1-0.2-0.1-0.4c0-0.1,0.1-0.2,0.1-0.4c0.1-0.3,0.3-0.5,0.5-0.7s0.5-0.4,0.8-0.7c0.1-0.1,0.3-0.2,0.4-0.3
		s0.3-0.2,0.5-0.3c0.4-0.2,0.7-0.3,1-0.4l0.5-0.1c0.2,0,0.4-0.1,0.5-0.1c0.2,0,0.4-0.1,0.6-0.1s0.4,0,0.6,0c0.3,0,0.7,0,1.1,0.1
		c0.4,0,0.7,0.1,0.9,0.3c0.2,0.1,0.3,0.3,0.4,0.5c0,0.2-0.1,0.3-0.2,0.5c-0.2,0.2-0.4,0.4-0.7,0.6c-0.3,0.2-0.5,0.3-0.7,0.4
		s-0.4,0.2-0.5,0.2h-0.1l0,0c0.1,0,0.2-0.1,0.5-0.3c0.2-0.1,0.5-0.3,0.6-0.5c0.2-0.2,0.3-0.3,0.3-0.5s-0.2-0.3-0.5-0.3
		c-0.6-0.1-1.2-0.1-1.9,0c-0.1,0-0.2,0-0.2,0c-0.1,0-0.1,0-0.2,0s-0.2,0.1-0.4,0.1c-0.3,0.1-0.7,0.2-0.9,0.3c-0.6,0.3-1.2,0.6-1.6,1
		c-0.2,0.2-0.3,0.3-0.4,0.5s-0.1,0.4,0.1,0.6c0.1,0.2,0.3,0.3,0.6,0.5c0.2,0.1,0.5,0.2,0.9,0.2s0.8,0,1.2,0s0.9-0.1,1.3-0.2
		c0.5-0.1,0.9-0.2,1.3-0.3s0.9-0.3,1.3-0.4c0.2-0.1,0.4-0.1,0.6-0.2c0.2-0.1,0.4-0.1,0.5-0.2l0.5-0.2c0.1,0,0.1,0,0.2-0.1
		c0,0,0.1,0,0.3-0.1c0.2-0.1,0.4-0.2,0.6-0.3s0.5-0.2,0.8-0.4C121.8,13.6,121.9,13.6,121.9,13.7z"/>
	<path class="st0" d="M127.5,13c0.7,0.2,0.7,0.6,0.1,1.1c-0.3,0.3-0.7,0.5-1.2,0.7s-1,0.4-1.5,0.6c-0.5,0.2-1,0.3-1.6,0.4
		c-0.6,0.1-1.1,0.2-1.5,0.1c-0.5,0-0.8-0.2-0.9-0.4s0-0.5,0.1-0.8c0.1-0.2,0.3-0.4,0.5-0.7c0.2-0.2,0.4-0.5,0.8-0.7
		c0.6-0.4,1.2-0.6,2-0.9c0.8-0.2,1.6-0.3,2.4-0.3s1.4,0,2,0.1c0.1,0,0,0.1-0.1,0.2s-0.2,0.2-0.3,0.1c-0.4-0.1-0.9-0.1-1.5-0.1
		s-1.1,0-1.7,0.1s-1.1,0.2-1.7,0.4c-0.5,0.2-1,0.4-1.4,0.8c-0.3,0.2-0.5,0.4-0.6,0.6c-0.1,0.1-0.2,0.3-0.2,0.5
		c-0.1,0.2,0,0.4,0.2,0.6c0.1,0.1,0.3,0.1,0.6,0.1c0.3,0,0.7-0.1,1.1-0.2c0.5-0.1,0.9-0.3,1.3-0.4c0.3-0.1,0.7-0.3,1.1-0.6
		c0.2-0.1,0.4-0.2,0.5-0.4s0.2-0.3,0.3-0.4c0.1-0.1,0-0.2-0.3-0.3s-0.4-0.1-0.5-0.2c-0.1,0-0.1-0.1,0.1-0.1s0.3-0.1,0.6-0.1
		s0.5,0,0.8,0S127.3,12.9,127.5,13z M133.8,13.7C133.9,13.7,133.9,13.7,133.8,13.7l-0.1,0.1c-0.2,0-0.4,0.1-0.6,0.1s-0.4,0-0.7,0
		h-1.1c-0.8,0-1.4-0.1-1.9-0.1c-0.3,0-0.6-0.1-0.8-0.2c-0.2-0.1-0.5-0.1-0.8-0.2c-0.1,0-0.3-0.1-0.4-0.1s-0.3-0.1-0.4-0.2l0,0
		c0.2,0,0.3,0,0.4,0.1c0.2,0,0.4,0.1,0.6,0.2c0.2,0.1,0.4,0.1,0.7,0.2s0.5,0.1,0.8,0.2c0.5,0.1,1.2,0.1,1.9,0.1c0.2,0,0.4,0,0.6,0
		s0.4,0,0.5,0C133.1,13.7,133.5,13.7,133.8,13.7z"/>
	<path class="st0" d="M145.2,0.7c0.6,0.3,0.9,0.7,1,1.1s-0.1,0.9-0.4,1.4s-0.7,0.9-1.3,1.4c-0.5,0.5-1,0.9-1.5,1.2
		c-0.2,0.2-0.5,0.4-0.7,0.6s-0.5,0.4-0.7,0.6c-0.3,0.3-0.6,0.6-0.9,0.8c-0.3,0.2-0.6,0.5-0.9,0.8c-0.7,0.7-1.4,1.3-2.1,2
		s-1.3,1.3-2,2c-0.6,0.7-1.2,1.3-1.9,2c-0.6,0.7-1.2,1.3-1.8,2c-0.4,0.5-0.8,1-1.1,1.4s-0.7,1-1,1.5c-0.2,0.4-0.4,0.7-0.5,1.1
		s-0.2,0.7-0.1,1.1c0.1,0.1,0.1,0.3,0.2,0.4c0.1,0.1,0.3,0.3,0.6,0.5c-0.5-0.2-0.8-0.4-0.9-0.7c-0.2-0.3-0.2-0.6-0.2-0.9
		c0.1-0.4,0.2-0.7,0.3-1c0.2-0.4,0.4-0.7,0.6-1c0.9-1.3,1.8-2.6,2.9-3.9c1.1-1.3,2.2-2.6,3.4-3.9s2.5-2.6,3.7-3.9
		c0.5-0.4,0.9-0.9,1.4-1.3c0.5-0.4,0.9-0.8,1.4-1.3c0.2-0.3,0.4-0.5,0.7-0.7c0.2-0.2,0.4-0.5,0.6-0.7c0.1-0.2,0.3-0.5,0.3-0.7
		s0.1-0.5,0.1-0.7s-0.1-0.4-0.3-0.6s-0.4-0.4-0.7-0.5s-0.6-0.3-0.9-0.3c-0.4-0.1-0.7-0.1-1.1-0.1c-0.6,0-1,0.1-1.4,0.2
		s-0.7,0.2-1,0.4c-0.3,0.1-0.5,0.3-0.7,0.5s-0.4,0.4-0.5,0.5c-0.2,0.2-0.3,0.4-0.4,0.6c-0.1,0.2-0.1,0.3-0.1,0.5s0,0.3,0,0.5
		s0,0.3-0.1,0.5c0,0.1,0,0.2-0.1,0.2s-0.2,0.1-0.2,0.1s-0.1,0-0.2-0.1s-0.1-0.1-0.1-0.2c0.1-0.2,0.1-0.5,0.2-0.8s0.1-0.5,0.3-0.8
		c0.2-0.4,0.6-0.8,1-1.1s0.9-0.6,1.5-0.9c0.4-0.2,0.8-0.3,1.3-0.3s0.9-0.1,1.2-0.1s0.7,0,1,0s0.5,0,0.6,0
		C144.2,0.3,144.7,0.4,145.2,0.7z M150.2,0.8c0.6,0.3,0.9,0.7,0.9,1.2c0,0.4-0.2,0.9-0.5,1.4c-0.4,0.5-0.8,0.9-1.3,1.4
		c-0.5,0.4-1.1,0.8-1.5,1.2c-0.2,0.2-0.5,0.4-0.8,0.6s-0.5,0.4-0.8,0.6c-0.3,0.3-0.6,0.5-0.9,0.8s-0.6,0.5-0.9,0.8
		c-0.8,0.7-1.5,1.3-2.2,2c-0.7,0.6-1.4,1.3-2.1,2c-0.7,0.7-1.3,1.3-1.9,2c-0.6,0.7-1.3,1.3-1.9,2c-0.4,0.5-0.8,0.9-1.2,1.4
		s-0.8,1-1.1,1.5c-0.1,0.2-0.2,0.4-0.4,0.7s-0.3,0.6-0.3,0.9s-0.2,0.7-0.2,1s0,0.7,0,1c0.1,0.3,0.1,0.6,0.3,0.8s0.4,0.5,0.8,0.6
		c0.4,0.2,0.7,0.3,1.1,0.3s0.7,0.1,1,0.1s0.7,0,1-0.1s0.6-0.1,1-0.1s0.6,0,0.8,0s0.2,0.1,0.2,0.2s-0.1,0.1-0.3,0.2s-0.4,0.1-0.8,0.1
		c-0.7,0.1-1.4,0.1-2,0.1c-0.7,0-1.3-0.1-1.8-0.4c-0.5-0.2-0.8-0.4-1.1-0.7c-0.2-0.3-0.4-0.5-0.5-0.8s-0.1-0.6-0.1-0.9
		s0.1-0.6,0.1-0.9c0.2-0.7,0.4-1.3,0.6-1.7c0.2-0.5,0.4-0.9,0.7-1.2c0.9-1.3,1.9-2.6,3.1-3.9c1.1-1.3,2.3-2.5,3.6-3.8s2.6-2.6,4-3.8
		c0.5-0.4,0.9-0.8,1.5-1.2c0.5-0.4,1-0.8,1.5-1.2c0.2-0.2,0.5-0.5,0.7-0.7s0.4-0.5,0.6-0.7c0.1-0.2,0.3-0.4,0.4-0.7
		c0.1-0.2,0.2-0.5,0.2-0.7c0.1-0.5,0-0.8-0.2-1s-0.4-0.5-0.7-0.7c-0.1-0.1-0.1-0.1,0.1-0.1s0.3,0.1,0.5,0.1s0.4,0.1,0.6,0.2
		C149.9,0.7,150.1,0.7,150.2,0.8z"/>
	<path class="st0" d="M148.8,13.7c0.1,0,0.1,0,0.1,0C149,13.7,148.9,13.7,148.8,13.7c0.1,0.1,0,0.1-0.2,0.2
		c-0.1,0.1-0.3,0.1-0.5,0.2c-0.2,0.1-0.3,0.1-0.4,0.2c-0.1,0.1-0.2,0.1-0.2,0.1l-0.5,0.2c-0.2,0.1-0.4,0.1-0.6,0.2
		c-0.2,0.1-0.4,0.1-0.6,0.2c-0.4,0.1-0.9,0.3-1.3,0.4s-0.9,0.2-1.4,0.3c-0.4,0.1-0.8,0.1-1.3,0.1s-0.9,0-1.2-0.1s-0.4-0.3-0.5-0.5
		c0-0.1,0-0.3,0-0.4c0-0.1,0.1-0.3,0.1-0.4c0.2-0.3,0.4-0.6,0.7-0.9c0.3-0.3,0.6-0.6,1-0.8c0.2-0.1,0.4-0.2,0.6-0.3
		c0.2-0.1,0.4-0.1,0.6-0.2c0.3-0.1,0.6-0.1,0.9-0.2c0.4,0,0.7,0,1,0s0.6,0.1,0.8,0.2c0.2,0.1,0.3,0.3,0.4,0.4c0,0.1-0.1,0.2-0.2,0.3
		c-0.1,0.1-0.3,0.3-0.5,0.4c-0.2,0.1-0.4,0.2-0.6,0.3c-0.3,0.1-0.5,0.2-0.8,0.3s-0.6,0.1-0.9,0.2c-0.3,0.1-0.6,0.1-1,0.2
		s-0.7,0.1-1,0.2c-0.1,0-0.1,0-0.1,0s0,0,0.1-0.1c0.4-0.1,0.9-0.2,1.4-0.3s1-0.2,1.4-0.3c0.3-0.1,0.5-0.2,0.8-0.3s0.5-0.2,0.7-0.3
		c0.1-0.1,0.1-0.1,0.2-0.2s0.1-0.1,0.2-0.2c0.1-0.1,0.1-0.2,0-0.3s-0.1-0.1-0.3-0.1s-0.3,0-0.4,0c-0.5,0-0.9,0.1-1.3,0.3
		c-0.4,0.1-0.9,0.3-1.3,0.6c-0.2,0.1-0.4,0.2-0.6,0.4s-0.3,0.3-0.5,0.4c-0.2,0.2-0.4,0.4-0.5,0.7s0,0.4,0.2,0.6
		c0.2,0.1,0.5,0.2,0.8,0.2s0.7,0,1.2-0.1s0.9-0.2,1.4-0.3s0.9-0.3,1.3-0.4c0.2-0.1,0.4-0.1,0.6-0.2c0.2-0.1,0.4-0.1,0.6-0.2l0.5-0.2
		c0,0,0.1-0.1,0.3-0.1c0.1-0.1,0.3-0.1,0.5-0.2S148.7,13.8,148.8,13.7C148.7,13.7,148.8,13.7,148.8,13.7z"/>
	<path class="st0" d="M159.3,13.7C159.4,13.7,159.4,13.7,159.3,13.7c0,0.1-0.1,0.1-0.3,0.2c-0.2,0.1-0.4,0.2-0.6,0.3
		c-0.2,0.1-0.4,0.2-0.6,0.3c-0.2,0.1-0.3,0.1-0.3,0.1c-0.1,0-0.2,0.1-0.3,0.1c-0.1,0.1-0.3,0.1-0.4,0.1c-0.1,0-0.3,0.1-0.4,0.1
		c-0.4,0.2-0.8,0.3-1.3,0.4c-0.4,0.1-0.9,0.3-1.3,0.4c-0.5,0.1-0.9,0.2-1.4,0.3c-0.5,0.1-0.9,0.1-1.4,0.1c-0.4,0-0.8,0-1.2-0.1
		s-0.7-0.2-1-0.3s-0.5-0.3-0.6-0.6c-0.1-0.1-0.1-0.2-0.1-0.4c0-0.1,0.1-0.2,0.1-0.4c0.1-0.3,0.3-0.5,0.5-0.7s0.5-0.4,0.8-0.7
		c0.1-0.1,0.3-0.2,0.4-0.3s0.3-0.2,0.5-0.3c0.4-0.2,0.7-0.3,1-0.4l0.5-0.1c0.2,0,0.4-0.1,0.5-0.1c0.2,0,0.4-0.1,0.6-0.1
		c0.2,0,0.4,0,0.6,0c0.4,0,0.7,0,1.1,0.1c0.4,0,0.7,0.1,0.9,0.3c0.2,0.1,0.4,0.3,0.4,0.5s-0.1,0.3-0.2,0.5s-0.4,0.4-0.7,0.6
		c-0.3,0.2-0.5,0.3-0.7,0.4s-0.4,0.2-0.5,0.2h-0.1l0,0c0.1,0,0.2-0.1,0.5-0.3c0.2-0.1,0.5-0.3,0.6-0.5c0.2-0.2,0.3-0.3,0.3-0.5
		c0-0.1-0.2-0.3-0.5-0.3c-0.6-0.1-1.2-0.1-1.9,0c-0.1,0-0.1,0-0.2,0c-0.1,0-0.1,0-0.2,0c-0.1,0-0.2,0.1-0.4,0.1
		c-0.4,0.1-0.7,0.2-0.9,0.3c-0.6,0.3-1.2,0.6-1.6,1c-0.2,0.2-0.3,0.3-0.4,0.5c-0.1,0.2-0.1,0.4,0.1,0.6c0.1,0.2,0.3,0.3,0.6,0.5
		c0.2,0.1,0.5,0.2,0.9,0.2s0.8,0,1.2,0s0.9-0.1,1.3-0.2c0.5-0.1,0.9-0.2,1.4-0.3s0.9-0.3,1.3-0.4c0.2-0.1,0.4-0.1,0.6-0.2
		c0.2-0.1,0.4-0.1,0.5-0.2l0.5-0.2c0.1,0,0.1,0,0.2-0.1c0,0,0.1,0,0.3-0.1s0.4-0.2,0.6-0.3c0.2-0.1,0.5-0.2,0.8-0.4
		C159.3,13.6,159.3,13.6,159.3,13.7z"/>
	<path class="st0" d="M170.6,10.2c0.5-0.1,0.8-0.2,1-0.1c0.2,0.1,0.3,0.2,0.2,0.3s-0.2,0.3-0.5,0.4c-0.3,0.1-0.6,0.2-1.1,0.2h-4.9
		h-1.1h-6.3h-1.6h-2.1c-0.1,0-0.2,0-0.2-0.1c0,0,0-0.1,0.1-0.1c0.5,0,1.1,0,2,0s1.8,0,2.9,0s2.1,0,3.3,0s2.3-0.1,3.3-0.1
		c1.1-0.1,2-0.1,2.9-0.2C169.4,10.4,170.1,10.3,170.6,10.2z M162.9,20.1c-0.7,0.1-1.4,0.2-2,0.1s-1.2-0.1-1.6-0.2
		c-0.5-0.1-1-0.3-1.3-0.5s-0.6-0.5-0.8-0.7c-0.2-0.3-0.3-0.5-0.3-0.8s0-0.5,0.1-0.8s0.3-0.7,0.6-1.1s0.6-0.8,1-1.2s0.8-0.9,1.2-1.3
		s0.8-0.8,1.2-1.2s0.9-0.9,1.6-1.4s1.4-1.1,2.1-1.8c0.7-0.7,1.3-1.4,1.9-2.2s0.9-1.6,1.1-2.6c0.1-0.3,0.1-0.7,0-1s-0.2-0.7-0.5-1
		s-0.6-0.6-1.1-0.9s-1-0.5-1.6-0.7c-0.4-0.1-0.8-0.2-1.3-0.3s-0.9-0.2-1.3-0.2c-0.1,0-0.1,0-0.1,0h0.1c0.8,0.1,1.5,0.3,2.4,0.5
		c0.8,0.2,1.5,0.5,2.1,0.8c0.5,0.3,0.9,0.5,1.1,0.8s0.5,0.6,0.6,0.9s0.2,0.7,0.1,1.1s-0.1,0.7-0.3,1c-0.1,0.4-0.4,0.9-0.8,1.6
		c-0.4,0.7-1,1.5-1.9,2.4c-0.5,0.4-1.1,1-1.9,1.7c-0.8,0.7-1.6,1.4-2.4,2.2c-0.8,0.8-1.5,1.6-2.1,2.4s-0.9,1.5-0.9,2.2
		c0,0.4,0.1,0.7,0.2,0.9s0.4,0.4,0.8,0.7c0.3,0.2,0.6,0.3,0.9,0.4c0.4,0.1,0.7,0.1,1,0.1s0.6,0,0.9,0c0.3,0,0.5,0,0.7-0.1
		c0.3-0.1,0.7-0.1,1.1-0.3c0.5-0.1,0.9-0.3,1.4-0.5c0.4-0.2,0.8-0.5,1.2-0.8s0.6-0.6,0.6-0.9c0.1-0.2,0.1-0.4,0-0.5
		s-0.2-0.3-0.4-0.5c-0.1,0-0.1-0.1-0.2-0.1c-0.1,0-0.1-0.1-0.2-0.1c-0.1,0-0.1-0.1,0-0.1s0.1-0.1,0.2-0.1s0.2,0,0.3,0s0.2,0,0.3,0.1
		c0.2,0.1,0.4,0.3,0.5,0.5s0.1,0.4,0.1,0.6c0,0.1-0.1,0.3-0.2,0.5c-0.1,0.2-0.3,0.4-0.5,0.6s-0.4,0.4-0.6,0.5
		c-0.2,0.2-0.5,0.3-0.7,0.5c-0.4,0.2-0.8,0.4-1.2,0.6C163.9,19.8,163.4,20,162.9,20.1z M165.8,12.9c-0.7,0.5-1.3,1-1.8,1.4
		c-0.2,0.2-0.4,0.3-0.6,0.5s-0.3,0.3-0.3,0.4c-0.1,0.1-0.1,0.2,0,0.3c0,0.1,0.2,0.1,0.4,0.1c0.4,0,1,0,1.8-0.1s1.6-0.3,2.4-0.4
		c0.9-0.2,1.7-0.4,2.5-0.6c0.8-0.2,1.5-0.5,2-0.8c0.1,0,0.1-0.1,0-0.1s-0.1,0-0.2,0c-0.1,0.1-0.4,0.2-1,0.4s-1.3,0.4-2.1,0.6
		c-0.8,0.2-1.6,0.4-2.3,0.5c-0.8,0.1-1.4,0.1-1.8,0c-0.2,0-0.2-0.1,0-0.3s0.4-0.4,0.8-0.6c0.3-0.2,0.7-0.5,1.1-0.7s0.8-0.5,1-0.7
		s0.4-0.4,0.5-0.5c0-0.1-0.1-0.2-0.5-0.2c-0.3,0-0.6,0-0.7,0c-0.1,0-0.3,0-0.3,0.1c-0.1,0-0.2,0.1-0.3,0.2
		C166.2,12.6,166,12.7,165.8,12.9z"/>
	<path class="st0" d="M177.8,13c0.7,0.2,0.8,0.6,0.1,1.1c-0.3,0.3-0.7,0.5-1.2,0.7s-1,0.4-1.5,0.6c-0.5,0.2-1,0.3-1.6,0.4
		C173,16,172.5,16,172,16s-0.8-0.2-0.9-0.4c-0.1-0.2,0-0.5,0.1-0.8c0.1-0.2,0.3-0.4,0.5-0.7c0.2-0.2,0.4-0.5,0.8-0.7
		c0.6-0.4,1.2-0.6,2-0.9c0.8-0.2,1.6-0.3,2.4-0.3c0.8,0,1.4,0,2,0.1c0.1,0,0,0.1-0.1,0.2c-0.1,0.1-0.2,0.2-0.3,0.1
		c-0.4-0.1-0.9-0.1-1.5-0.1s-1.1,0-1.7,0.1s-1.1,0.2-1.6,0.4s-1,0.4-1.4,0.8c-0.3,0.2-0.5,0.4-0.6,0.6c-0.1,0.1-0.2,0.3-0.2,0.5
		c-0.1,0.2,0,0.4,0.2,0.6c0.1,0.1,0.4,0.1,0.6,0.1c0.3,0,0.7-0.1,1.1-0.2c0.5-0.1,0.9-0.3,1.3-0.4c0.3-0.1,0.7-0.3,1.1-0.6
		c0.2-0.1,0.4-0.2,0.5-0.4s0.2-0.3,0.3-0.4c0.1-0.1,0-0.2-0.3-0.3s-0.4-0.1-0.5-0.2c-0.1,0-0.1-0.1,0.1-0.1s0.4-0.1,0.6-0.1
		s0.5,0,0.8,0S177.6,12.9,177.8,13z M184.1,13.7C184.2,13.7,184.2,13.7,184.1,13.7l-0.1,0.1c-0.2,0-0.4,0.1-0.6,0.1s-0.4,0-0.7,0
		h-1.1c-0.8,0-1.4-0.1-1.9-0.1c-0.3,0-0.6-0.1-0.8-0.2c-0.2-0.1-0.5-0.1-0.8-0.2c-0.1,0-0.3-0.1-0.4-0.1s-0.3-0.1-0.4-0.2l0,0
		c0.2,0,0.3,0,0.4,0.1c0.2,0,0.4,0.1,0.6,0.2c0.2,0.1,0.4,0.1,0.7,0.2s0.5,0.1,0.8,0.2c0.5,0.1,1.2,0.1,1.9,0.1c0.2,0,0.4,0,0.6,0
		s0.4,0,0.5,0C183.4,13.7,183.8,13.7,184.1,13.7z"/>
	<path class="st0" d="M198.5,17.7c0.1-0.1,0.3-0.1,0.4,0c0.1,0,0.1,0.1,0,0.2c-0.2,0.1-0.4,0.2-0.6,0.3s-0.4,0.2-0.6,0.3
		c-0.4,0.2-0.9,0.4-1.3,0.6s-0.9,0.4-1.3,0.5c-0.5,0.2-1,0.4-1.4,0.5s-1,0.3-1.5,0.5c-0.5,0.1-0.9,0.2-1.4,0.3
		c-0.5,0.1-1,0.1-1.4,0.1c-0.5,0-0.9-0.1-1.3-0.2c-0.4-0.1-0.7-0.3-1-0.5c-0.3-0.3-0.5-0.5-0.6-0.8s-0.2-0.6-0.1-0.9
		c0.1-0.4,0.2-0.7,0.4-1s0.5-0.7,0.7-1c0.6-0.7,1.3-1.3,2.1-2c0.1-0.1,0.3-0.3,0.5-0.4c0.2-0.2,0.5-0.4,0.7-0.5
		c0.2-0.2,0.5-0.4,0.7-0.5c0.2-0.2,0.4-0.3,0.5-0.4c-0.1,0-0.1,0-0.2,0c-0.1,0-0.1,0-0.2,0.1c-0.4,0.1-0.7,0.2-1.1,0.3
		c-0.4,0.1-0.8,0.3-1.3,0.5c-0.4,0.2-0.8,0.4-1.2,0.5c-0.4,0.2-0.7,0.3-1,0.4c-0.6,0.2-1.1,0.4-1.7,0.7c-0.5,0.2-1.2,0.4-1.9,0.6
		c-0.1,0-0.2,0.1-0.4,0.1c-0.1,0-0.3,0.1-0.4,0.1c-0.1,0-0.2,0-0.3,0s-0.1-0.1,0-0.2c0.1-0.2,0.3-0.4,0.4-0.6
		c0.2-0.2,0.5-0.5,0.9-0.8s0.7-0.6,0.9-0.8c0.1-0.1,0.2-0.2,0.3-0.2s0.2-0.1,0.2-0.2c0.1-0.1,0.1-0.1,0.2-0.2
		c0.1-0.1,0.2-0.1,0.4-0.2s0.4-0.1,0.6-0.2c0.2-0.1,0.4-0.1,0.6-0.1s0.3-0.1,0.3-0.1c0.2,0,0.3,0,0.5-0.1c0.1,0,0.3,0,0.3,0
		c0.1,0,0.1,0,0.1,0.1s-0.1,0.1-0.3,0.3c-0.1,0.1-0.3,0.2-0.6,0.4c-0.2,0.2-0.5,0.3-0.7,0.5s-0.5,0.3-0.7,0.5s-0.4,0.3-0.5,0.4
		c-0.1,0.1-0.2,0.1-0.3,0.2c-0.1,0.1-0.2,0.2-0.3,0.3s-0.1,0.1,0,0.2c0.1,0,0.2,0,0.5-0.1s0.7-0.2,1.3-0.5s1.3-0.6,2.3-1
		c0.6-0.3,1.1-0.5,1.6-0.7s1.2-0.4,1.9-0.5c0.4-0.1,0.8-0.1,1.1-0.1c0.4,0,0.6-0.1,0.8,0c0.2,0,0.3,0.1,0.3,0.1
		c0,0.1-0.1,0.2-0.3,0.4c-0.2,0.1-0.4,0.3-0.6,0.4c-0.2,0.1-0.4,0.3-0.6,0.4c-0.2,0.1-0.5,0.3-0.8,0.5s-0.6,0.4-0.9,0.6
		c-0.3,0.2-0.6,0.4-0.9,0.6c-0.3,0.2-0.5,0.4-0.7,0.5c-0.4,0.3-0.8,0.6-1.1,0.9s-0.7,0.7-1,1c-0.2,0.3-0.4,0.6-0.5,0.9s-0.1,0.6,0,1
		c0.1,0.3,0.3,0.6,0.6,0.8c0.1,0.1,0.3,0.2,0.4,0.3s0.4,0.2,0.6,0.2c0.4,0.1,0.9,0.1,1.3,0.1s0.9-0.1,1.3-0.1
		c0.5-0.1,1.1-0.2,1.6-0.4c0.5-0.1,1-0.3,1.4-0.5c1-0.4,1.9-0.7,2.8-1.1C197.3,18.4,197.9,18.1,198.5,17.7z M183.8,13.9
		c-0.1,0-0.2,0-0.3,0s-0.1-0.1,0-0.1s0.2-0.1,0.4-0.1s0.4-0.1,0.5-0.2s0.3-0.2,0.4-0.2c0.1-0.1,0.2-0.2,0.4-0.3l0.4,0.3L183.8,13.9z
		"/>
</g>
<g>
	<g>
		<g>
			<path class="st1" d="M124.3-36.1h-0.7c-0.1,0-0.2-0.2-0.2-0.4v-1.8c0-0.2,0.1-0.3,0.2-0.3h0.7c0.1,0,0.2,0.2,0.2,0.3v1.9
				C124.5-36.2,124.4-36.1,124.3-36.1L124.3-36.1z"/>
		</g>
	</g>
	<g>
		<g>
			<path class="st2" d="M124.3-38.7h-0.6c0.1,0,0.2,0.2,0.2,0.4v1.9c0,0.2-0.1,0.4-0.2,0.4h0.6c0.1,0,0.2-0.2,0.2-0.4v-1.9
				C124.5-38.5,124.4-38.7,124.3-38.7L124.3-38.7z"/>
		</g>
	</g>
	<g>
		<g>
			<ellipse class="st3" cx="123.9" cy="-37.6" rx="0.1" ry="0.2"/>
		</g>
	</g>
	<g>
		<g>
			<path class="st4" d="M124.7-34h-1.6v-2.1c0-0.1,0.1-0.2,0.1-0.2h1.4c0.1,0,0.1,0.1,0.1,0.2V-34L124.7-34z"/>
		</g>
	</g>
	<g>
		<g>
			<path class="st5" d="M124.6-36.3H124c0.1,0,0.1,0.1,0.1,0.2v2.1h0.6v-2.1C124.7-36.2,124.7-36.3,124.6-36.3L124.6-36.3z"/>
		</g>
	</g>
	<g>
		<g>
			<path class="st4" d="M126.7-37.9h2.7v2h-2.7V-37.9z"/>
		</g>
	</g>
	<g>
		<g>
			<path class="st5" d="M128.8-37.9h0.6v2h-0.6V-37.9z"/>
		</g>
	</g>
	<g>
		<g>
			<path class="st2" d="M129.8-37.5V-40c0-0.1-0.1-0.2-0.1-0.2h-3.3c-0.1,0-0.1,0.1-0.1,0.2v2.5c0,0.1,0,0.1,0.1,0.1L129.8-37.5
				C129.8-37.3,129.8-37.4,129.8-37.5L129.8-37.5z"/>
		</g>
	</g>
	<g>
		<g>
			<path class="st2" d="M125.9-36.2v8.1c0,0.1,0.1,0.3,0.2,0.3h4c0.1,0,0.2-0.1,0.2-0.3v-8.1c0-0.1-0.1-0.2-0.1-0.2h-1.3l-0.8,0.3
				l-0.8-0.3H126C125.9-36.3,125.9-36.3,125.9-36.2L125.9-36.2z"/>
		</g>
	</g>
	<g>
		<g>
			<path class="st6" d="M128.6-31.7h-1.1c-0.1,0-0.2-0.2-0.2-0.4v-4.3h1.6v4.3C128.8-31.8,128.7-31.7,128.6-31.7L128.6-31.7z"/>
		</g>
	</g>
	<g>
		<g>
			<path class="st7" d="M129.7-40.2h-0.6c0.1,0,0.1,0.1,0.1,0.2v2.5c0,0.1,0,0.1-0.1,0.1h0.6c0.1,0,0.1-0.1,0.1-0.1V-40
				C129.8-40.1,129.7-40.2,129.7-40.2z"/>
		</g>
	</g>
	<g>
		<g>
			<path class="st7" d="M130.1-36.3h-0.6c0.1,0,0.1,0.1,0.1,0.2v8.1c0,0.1-0.1,0.3-0.2,0.3h0.6c0.1,0,0.2-0.1,0.2-0.3v-8.1
				C130.2-36.3,130.2-36.3,130.1-36.3L130.1-36.3z"/>
		</g>
	</g>
	<g>
		<g>
			<path class="st8" d="M128.3-36.3v4.3c0,0.2-0.1,0.4-0.2,0.4h0.6c0.1,0,0.2-0.2,0.2-0.4v-4.3H128.3z"/>
		</g>
	</g>
	<g>
		<g>
			<path class="st4" d="M128.9-31.8l-0.8,1.2c0,0.1-0.1,0.1-0.2,0l-0.8-1.2c0-0.1,0-0.2,0-0.2l0.8-1.2c0-0.1,0.1-0.1,0.2,0l0.8,1.2
				C128.9-32,128.9-31.9,128.9-31.8z"/>
		</g>
	</g>
	<g>
		<g>
			<path class="st5" d="M128.9-32l-0.8-1.2c0-0.1-0.1-0.1-0.2,0l-0.2,0.3l0.6,0.9c0,0.1,0,0.2,0,0.2l-0.6,0.9l0.2,0.3
				c0,0.1,0.1,0.1,0.2,0l0.8-1.2V-32L128.9-32z"/>
		</g>
	</g>
	<g>
		<g>
			<path class="st3" d="M122.5-27.8h0.7l0.6-0.3l0.8,0.3h0.6c0.1,0,0.2,0,0.2-0.1c0.6-0.8,1-1.9,1-3.3c0-2.2-1.2-4-2.6-4
				s-2.6,1.8-2.6,4.1c0,1.3,0.4,2.5,1,3.2C122.4-27.8,122.5-27.8,122.5-27.8L122.5-27.8z"/>
		</g>
	</g>
	<g>
		<g>
			<path class="st9" d="M123.2-27.8h1.4c0.3-0.7,0.6-2,0.6-3.4c0-2.3-0.6-4.1-1.3-4.1s-1.3,1.8-1.3,4.1
				C122.6-29.7,122.8-28.5,123.2-27.8L123.2-27.8z"/>
		</g>
	</g>
	<g>
		<g>
			<path class="st10" d="M123.9-35.2c1.1,0.4,2,2.1,2,4c0,1.3-0.4,2.5-1,3.3c-0.1,0.1-0.2,0.1-0.2,0.1h0.6c0.1,0,0.2,0,0.2-0.1
				c0.6-0.8,1-1.9,1-3.3C126.5-33.4,125.3-35.2,123.9-35.2L123.9-35.2z"/>
		</g>
	</g>
	<g>
		<g>
			<path class="st11" d="M123.9-35.2c-0.1,0-0.2,0-0.3,0.1c0.6,0.4,1,2,1,4c0,1.4-0.2,2.6-0.6,3.4h0.6c0.3-0.7,0.6-2,0.6-3.4
				C125.2-33.4,124.6-35.2,123.9-35.2z"/>
		</g>
	</g>
</g>
<g>
	<path class="st0" d="M101.4,7.6h0.6V7.2h-0.6c-0.1,0-0.2,0.1-0.2,0.2S101.3,7.6,101.4,7.6L101.4,7.6z"/>
	<path class="st0" d="M100.9,17.4L100.9,17.4C100.9,17.5,100.9,17.5,100.9,17.4C100.9,17.5,100.9,17.5,100.9,17.4
		c0.1,0.2,0.3,0.4,0.5,0.4c0.2,0,0.3,0,0.5-0.1c0,0,0,0,0,0c0,0,0,0,0,0c0.1-0.1,0.2-0.3,0.1-0.5c0-0.2-0.2-0.3-0.3-0.4c0,0,0,0,0,0
		c0,0,0,0,0,0c0,0,0,0,0,0l-0.1-0.1l-1.3-0.6L100.9,17.4z"/>
	<path class="st0" d="M98,12.8C98,12.8,98.1,12.8,98,12.8l0.2,0.4c0,0,0,0,0,0l0.6,1.1c0.1,0,0.1-0.1,0.2-0.1l0-0.7
		c0-0.1,0.1-0.2,0.2-0.2h0h0c0.1,0,0.2,0.1,0.2,0.2l0,0.7c0.1,0,0.2,0,0.2,0.1l0.6-1.1c0,0,0,0,0,0l0.1-0.2l0.1-0.1c0,0,0,0,0,0
		c0,0,0,0,0,0c0-0.1,0.1-0.2,0.1-0.2c0-0.3-0.1-0.7-0.4-0.9c-0.2-0.2-0.6-0.4-0.9-0.4h0c-0.4,0-0.7,0.1-0.9,0.4
		c-0.2,0.3-0.4,0.6-0.3,0.9C98,12.6,98,12.7,98,12.8L98,12.8z"/>
	<path class="st0" d="M101,15.5l-0.7,0c0,0.1,0,0.1-0.1,0.2l1.1,0.6c0,0,0,0,0,0l0.2,0.1l0.1,0.1c0,0,0,0,0,0c0,0,0,0,0,0
		c0.1,0,0.2,0,0.2,0.1c0.4,0,0.7-0.1,0.9-0.3c0.5-0.5,0.5-1.3,0-1.8c0,0,0,0-0.1,0c-0.3-0.2-0.6-0.4-1-0.3c-0.1,0-0.2,0-0.3,0.1
		l-0.2,0.1l-0.1,0.1c0,0,0,0,0,0l-1.1,0.6c0,0.1,0.1,0.2,0.1,0.2l0.7,0h0c0.1,0,0.2,0.1,0.2,0.2C101.3,15.4,101.2,15.5,101,15.5
		L101,15.5z"/>
	<path class="st0" d="M101.6,9h2.8v1.3h-2.8V9z"/>
	<path class="st0" d="M102.3,6.2h1.5v2.4h-1.5V6.2z"/>
	<path class="st0" d="M105.1,7.8c0.4,0.3,0.8,0.2,0.9,0c0.3-0.2,0.3-0.6,0-0.9c-0.3-0.3-0.8-0.1-0.9,0c0,0,0,0,0,0l-0.7,0.4
		L105.1,7.8C105.1,7.8,105.1,7.8,105.1,7.8L105.1,7.8z"/>
	<path class="st0" d="M107,12.4c-0.6-0.8-1.5-1.4-2.4-1.7h-3.1c-0.4,0.1-0.8,0.3-1.1,0.5c0.1,0,0.1,0.1,0.2,0.2
		c0.1,0.1,0.2,0.3,0.3,0.4c0.3-0.2,0.6-0.3,1-0.4c0,0,0,0,0.1,0h2.4c0,0,0,0,0.1,0c2.2,0.7,3.4,3,2.7,5.1c-0.3,1-1.1,1.9-2.1,2.4
		c0,0-0.1,0-0.1,0h-3.5c0,0-0.1,0-0.1,0c-0.1-0.1-0.2-0.1-0.3-0.2c-0.1,0.2-0.2,0.4-0.3,0.5c-0.1,0.1-0.1,0.1-0.2,0.2
		c0.1,0.1,0.3,0.2,0.4,0.2h4.5c2.4-1.2,3.4-4.1,2.2-6.5C107.3,12.8,107.2,12.6,107,12.4L107,12.4z"/>
	<path class="st0" d="M97.2,16.7L97,16.8c0,0,0,0,0,0c0,0,0,0,0,0c0,0,0,0,0,0c-0.2,0.1-0.3,0.2-0.3,0.4c0,0.2,0,0.3,0.1,0.5
		c0,0,0,0,0,0s0,0,0,0c0.1,0.1,0.3,0.2,0.5,0.1c0.2,0,0.3-0.2,0.4-0.3c0,0,0,0,0,0c0,0,0,0,0,0l0,0l0.7-1.4L97.2,16.7z"/>
	<path class="st0" d="M96.8,16.4C96.8,16.4,96.8,16.4,96.8,16.4l0.2-0.1l0.2-0.1c0,0,0,0,0,0l1.1-0.6c0-0.1-0.1-0.1-0.1-0.2l-0.7,0
		h0c-0.1,0-0.2-0.1-0.2-0.2c0-0.1,0.1-0.2,0.2-0.2c0,0,0,0,0,0l0.7,0c0-0.1,0-0.2,0.1-0.2l-1.5-0.7c-0.1,0-0.2-0.1-0.3-0.1
		c-0.4,0-0.7,0.1-0.9,0.3c-0.5,0.5-0.5,1.3,0,1.8c0,0,0,0,0.1,0c0.3,0.2,0.6,0.4,1,0.3C96.6,16.5,96.7,16.5,96.8,16.4
		C96.8,16.4,96.8,16.4,96.8,16.4z"/>
	<path class="st0" d="M100.6,17.9c0-0.1,0-0.1-0.1-0.2c0,0,0,0,0-0.1l0,0l0,0l-0.2-0.3c0,0,0,0,0,0l-0.6-1.1c-0.1,0-0.2,0.1-0.2,0.1
		l0,0.7c0,0.1-0.1,0.2-0.2,0.2c0,0,0,0,0,0h0c-0.1,0-0.2-0.1-0.2-0.2l0-0.7c-0.1,0-0.1,0-0.2-0.1l-0.6,1.1c0,0,0,0,0,0l-0.2,0.3l0,0
		c0,0,0,0,0,0c0,0,0,0,0,0.1c0,0.1,0,0.1,0,0.2c0,0.3,0.1,0.7,0.4,0.9c0.2,0.2,0.6,0.4,0.9,0.4h0c0.4,0,0.7-0.1,0.9-0.4
		C100.5,18.6,100.6,18.3,100.6,17.9L100.6,17.9z"/>
	<path class="st0" d="M100.9,13C100.9,13,100.9,13,100.9,13C100.9,13,100.9,13,100.9,13l-0.1,0.2l-0.7,1.3l1.2-0.6l0.2-0.1
		c0,0,0,0,0,0c0,0,0,0,0,0c0,0,0,0,0,0c0.2-0.1,0.3-0.2,0.3-0.4c0-0.2,0-0.3-0.1-0.5c0,0,0,0,0,0s0,0,0,0c-0.1-0.1-0.3-0.2-0.5-0.1
		C101.1,12.7,101,12.8,100.9,13C100.9,13,100.9,13,100.9,13L100.9,13z"/>
	<path class="st0" d="M104.8,18.4c0.6-0.3,1.1-0.7,1.4-1.3c0.4-0.6,0.6-1.2,0.6-1.9c0-1.6-1-2.9-2.5-3.4h-2.4
		c-0.3,0.1-0.6,0.3-0.9,0.4c0,0,0,0.1,0,0.1c0.1,0,0.2-0.1,0.2-0.1c0.3-0.1,0.6,0,0.8,0.2c0,0,0,0,0,0c0,0,0,0,0,0
		c0.2,0.2,0.3,0.5,0.2,0.8c0,0.1,0,0.2-0.1,0.2c0.4,0,0.7,0.2,1,0.4c0.7,0.6,0.7,1.7,0.1,2.4c0,0,0,0-0.1,0.1
		c-0.3,0.3-0.6,0.4-1,0.5c0,0.1,0.1,0.2,0.1,0.2c0.1,0.3,0,0.6-0.2,0.8c0,0,0,0,0,0c0,0,0,0,0,0c-0.2,0.2-0.4,0.3-0.6,0.3
		c-0.1,0-0.1,0-0.2,0c-0.1,0-0.2,0-0.2-0.1c0,0,0,0,0,0c0.1,0.1,0.2,0.1,0.3,0.2L104.8,18.4z"/>
	<path class="st0" d="M97,13.7C97,13.7,97,13.7,97,13.7l0.4,0.2c0,0,0,0,0,0l1.1,0.5L97.7,13c0,0,0-0.1,0-0.1
		c-0.1-0.2-0.2-0.3-0.4-0.3c-0.2,0-0.3,0-0.5,0.1c0,0,0,0,0,0c0,0,0,0,0,0c-0.1,0.1-0.2,0.3-0.1,0.5C96.7,13.5,96.8,13.6,97,13.7
		L97,13.7z"/>
	<ellipse class="st0" cx="99.3" cy="15.2" rx="0.6" ry="0.6"/>
</g>
</svg>
